<?xml version="1.0" standalone="no"?><!DOCTYPE svg PUBLIC "-//W3C//DTD SVG 1.1//EN" "http://www.w3.org/Graphics/SVG/1.1/DTD/svg11.dtd"><svg t="1554701091373" class="icon" style="" viewBox="0 0 1024 1024" version="1.1" xmlns="http://www.w3.org/2000/svg" p-id="1964" xmlns:xlink="http://www.w3.org/1999/xlink" width="200" height="200"><defs><style type="text/css"></style></defs><path d="M855.73418 193.876616C791.157419 146.991796 579.132468 64.051805 511.999488 64.303538c-67.13298-0.251733-279.192723 82.688257-343.734692 129.573077-19.23918 13.95892-35.58445 38.174438-35.112706 62.272275 1.715061 87.4804 7.264451 213.724663 58.118676 325.437977 110.48637 242.901169 268.059152 365.259938 315.952952 377.502773 1.581008 0.404206 3.162016 0.537236 4.776793 0.605797 1.613754-0.067538 3.194762-0.201591 4.742001-0.605797 47.894823-12.242835 205.467605-134.601604 315.986721-377.502773 50.820456-111.713314 56.403614-237.957577 58.119699-325.437977C891.31863 232.051053 874.972337 207.835536 855.73418 193.876616zM796.134781 512c-84.453461 230.153844-228.606605 361.728508-284.135292 383.758244-26.230408-10.407024-72.247464-45.270043-122.398678-103.409185C909.355425 676.364465 719.552591 406.478711 575.192739 266.342044c290.336528 389.948223-86.331227 456.089619-231.535307 467.265146-18.684548-26.276457-37.288255-55.605436-55.063083-87.929632C766.37499 679.131485 619.568413 362.556363 543.272749 236.649791c-40.555671-36.182061-71.532173-58.294684-71.532173-58.294684 295.347658 459.990462-102.284571 421.779186-215.411071 402.991284-10.032494-22.021549-19.583011-45.130873-28.465309-69.346391-50.248428-136.972605-31.54853-224.235041-31.581276-223.865627 0 0-2.25332-48.533366 31.581276-63.970964 153.066141-69.587891 250.132874-95.804996 284.136316-95.940073 34.003442 0.135076 131.069151 26.352181 284.135292 95.940073 33.835619 15.437597 31.582299 63.970964 31.582299 63.970964C827.684334 287.764959 846.384231 375.027395 796.134781 512z" p-id="1965" fill="#ffffff"></path></svg>