<?xml version="1.0" standalone="no"?><!DOCTYPE svg PUBLIC "-//W3C//DTD SVG 1.1//EN" "http://www.w3.org/Graphics/SVG/1.1/DTD/svg11.dtd"><svg t="1527062053310" class="icon" style="" viewBox="0 0 1024 1024" version="1.1" xmlns="http://www.w3.org/2000/svg" p-id="3317" xmlns:xlink="http://www.w3.org/1999/xlink" width="200" height="200"><defs><style type="text/css"></style></defs><path d="M467.2 659.2c12.8 6.4 25.6 12.8 44.8 12.8 12.8 0 32-6.4 44.8-12.8l377.6-249.6c19.2-6.4 25.6-25.6 25.6-38.4 0-19.2-6.4-32-25.6-44.8L556.8 76.8c-25.6-19.2-64-19.2-89.6 0L89.6 326.4c-19.2 6.4-25.6 25.6-25.6 38.4 0 19.2 6.4 38.4 25.6 44.8l377.6 249.6zM499.2 128h19.2l364.8 236.8-358.4 243.2h-19.2L140.8 364.8 499.2 128z" p-id="3318"></path><path d="M89.6 563.2l377.6 249.6c12.8 6.4 25.6 12.8 44.8 12.8 12.8 0 32-6.4 44.8-12.8l377.6-249.6c12.8-12.8 38.4-32 25.6-38.4-38.4-38.4-76.8 0-76.8 0l-358.4 236.8h-19.2L147.2 524.8s-44.8-38.4-83.2 0c-12.8 6.4 12.8 25.6 25.6 38.4z" p-id="3319"></path><path d="M876.8 659.2L524.8 896h-19.2l-358.4-236.8s-44.8-38.4-83.2 0c-12.8 12.8 12.8 32 25.6 38.4l377.6 249.6c12.8 6.4 32 12.8 44.8 12.8 12.8 0 32-6.4 44.8-12.8l377.6-249.6c12.8-12.8 38.4-32 25.6-38.4-38.4-38.4-83.2 0-83.2 0z" p-id="3320"></path></svg>