<?xml version="1.0" standalone="no"?><!DOCTYPE svg PUBLIC "-//W3C//DTD SVG 1.1//EN" "http://www.w3.org/Graphics/SVG/1.1/DTD/svg11.dtd"><svg t="1553822432669" class="icon" style="" viewBox="0 0 1024 1024" version="1.1" xmlns="http://www.w3.org/2000/svg" p-id="3511" xmlns:xlink="http://www.w3.org/1999/xlink" width="200" height="200"><defs><style type="text/css"></style></defs><path d="M304.9 780.7c0-27.9-22.6-50.5-50.5-50.5s-50.5 22.6-50.5 50.5 22.6 50.5 50.5 50.5 50.5-22.6 50.5-50.5z m-83.1 0c0-18 14.6-32.6 32.6-32.6s32.6 14.6 32.6 32.6-14.6 32.6-32.6 32.6-32.6-14.6-32.6-32.6z" fill="#ffffff" p-id="3512"></path><path d="M951.3 872.6H322.4c28.1-20.8 46.3-54.2 46.3-91.9 0-16.4-3.4-31.9-9.6-46v-0.1c-2.4-5.4-5.1-10.5-8.2-15.4l-116.8-217c0.2-2.1 0.3-4.1 0.3-6.2 0-2.3-0.1-4.5-0.3-6.7 0.2-0.9 0.3-1.8 0.3-2.8l-16.3-277.3H342c16.7 0 30.7-11.4 34.7-26.9h29.6c6.1 25.7 29.2 44.8 56.7 44.8 17.4 0 33.8-7.7 44.9-21.2 3.2-3.8 2.6-9.5-1.2-12.6-3.8-3.2-9.5-2.6-12.6 1.2-7.7 9.3-19 14.7-31.1 14.7-22.2 0-40.3-18.1-40.3-40.3s18.1-40.3 40.3-40.3c12.9 0 24.7 5.9 32.4 16.3 3 4 8.6 4.8 12.5 1.8 4-3 4.8-8.6 1.8-12.5-11-14.7-28.4-23.5-46.8-23.5-30.6 0-55.8 23.7-58.1 53.8h-28.2c-4-15.4-18-26.9-34.7-26.9H202.5c-9.9-11-24.2-17.9-40-17.9-29.7 0-53.8 24.1-53.8 53.8 0 2.2 0.1 4.3 0.4 6.4-0.1 0.5-0.3 1-0.3 1.5L72.9 486.1c-0.1 1.1 0 2.3 0.2 3.3a75.08 75.08 0 0 0 0 13.4c-0.4 1.4-0.4 2.9-0.1 4.3l68.1 289.3c4.3 31.1 21.1 58.3 45.2 76.2H72.9c-4.9 0-9 4-9 9v9c0 4.9 4 9 9 9h878.4c4.9 0 9-4 9-9v-9c0-5-4.1-9-9-9zM309.6 680.7c-16.4-9.1-35.2-14.2-55.2-14.2-49.6 0-91.7 31.5-107.6 75.6l-42.9-182.4c13.7 10.7 30.9 17.2 49.7 17.2 33.1 0 61.6-20 74-48.6l82 152.4zM153.5 558.9c-34.6 0-62.7-28.1-62.7-62.7s28.1-62.7 62.7-62.7 62.7 28.1 62.7 62.7c0.1 34.5-28.1 62.7-62.7 62.7z m206.2-385.5c0 9.9-8 17.9-17.9 17.9-9.9 0-17.9-8-17.9-17.9 0-9.9 8-17.9 17.9-17.9s17.9 8.1 17.9 17.9z m-49-17.9c-3.1 5.3-4.8 11.4-4.8 17.9 0 6.5 1.8 12.6 4.8 17.9h-93.9l-0.6-9.5c0-0.7-0.2-1.4-0.4-2.1 0.2-2.1 0.4-4.2 0.4-6.4 0-6.3-1.1-12.3-3.1-17.9h97.6z m-148.2-17.9c19.8 0 35.9 16.1 35.9 35.9 0 19.8-16.1 35.9-35.9 35.9-19.8 0-35.9-16.1-35.9-35.9 0-19.8 16.1-35.9 35.9-35.9z m-39.1 72.7c9.8 10.4 23.7 16.9 39.1 16.9 14.6 0 27.9-5.9 37.6-15.4l13.6 230.5c-14.8-16.5-36.2-26.9-60.1-26.9-22.2 0-42.4 9.1-57 23.7l26.8-228.8z m39.1 599.5c0-0.6-0.1-1.3-0.2-2l-3.4-14.6c-0.5-4.1-0.8-8.2-0.8-12.5 0-53.1 43.2-96.4 96.4-96.4 34 0 64 17.7 81.2 44.5l6.9 12.9c5.3 11.9 8.3 25.1 8.3 39 0 43-28.3 79.5-67.3 91.9h-58.1c-30-9.4-53.6-33-63-62.8z" fill="#ffffff" p-id="3513"></path><path d="M153.5 451.3c-24.7 0-44.8 20.1-44.8 44.8s20.1 44.8 44.8 44.8 44.8-20.1 44.8-44.8-20-44.8-44.8-44.8z m0 71.7c-14.8 0-26.9-12.1-26.9-26.9s12.1-26.9 26.9-26.9 26.9 12.1 26.9 26.9-12 26.9-26.9 26.9zM574.8 836.8h313.7c19.8 0 35.9-16.1 35.9-35.9V155.5c0-19.8-16.1-35.9-35.9-35.9H574.8c-19.8 0-35.9 16.1-35.9 35.9v645.4c0.1 19.8 16.2 35.9 35.9 35.9z m-17.9-681.3c0-9.9 8-17.9 17.9-17.9h313.7c9.9 0 17.9 8 17.9 17.9v645.4c0 9.9-8 17.9-17.9 17.9H574.8c-9.9 0-17.9-8-17.9-17.9V155.5z" fill="#ffffff" p-id="3514"></path><path d="M592.8 514.1h277.9c5 0 9-4 9-9V182.4c0-5-4-9-9-9H592.8c-5 0-9 4-9 9v322.7c0 5 4 9 9 9z m8.9-322.7h259.9v304.8H601.7V191.4zM592.8 594.7h134.5c5 0 9-4 9-9s-4-9-9-9H592.8c-5 0-9 4-9 9s4 9 9 9zM592.8 630.6h71.7c5 0 9-4 9-9s-4-9-9-9h-71.7c-5 0-9 4-9 9s4 9 9 9zM870.6 662H592.8c-2.5 0-4.5 2-4.5 4.5v22.4c0 2.5 2 4.5 4.5 4.5h277.9c2.5 0 4.5-2 4.5-4.5v-22.4c-0.1-2.5-2.1-4.5-4.6-4.5z m-4.5 22.4H597.2V671h268.9v13.4zM870.6 706.8H592.8c-2.5 0-4.5 2-4.5 4.5v22.4c0 2.5 2 4.5 4.5 4.5h277.9c2.5 0 4.5-2 4.5-4.5v-22.4c-0.1-2.5-2.1-4.5-4.6-4.5z m-4.5 22.4H597.2v-13.4h268.9v13.4zM870.6 751.6H592.8c-2.5 0-4.5 2-4.5 4.5v22.4c0 2.5 2 4.5 4.5 4.5h277.9c2.5 0 4.5-2 4.5-4.5v-22.4c-0.1-2.5-2.1-4.5-4.6-4.5z m-4.5 22.4H597.2v-13.4h268.9V774z" fill="#ffffff" p-id="3515"></path><path d="M839.3 321.3h-32.1L782.9 297a9.02 9.02 0 0 0-8.4-2.4c-3 0.7-5.5 2.9-6.4 5.9L748.9 358l-44.7-111.7c-1.4-3.4-4.7-5.7-8.4-5.6-3.7 0-7 2.4-8.3 5.8l-24.7 65.9h-29.6c-5 0-9 4-9 9s4 9 9 9h35.9c3.7 0 7.1-2.3 8.4-5.8l18.8-50 45.2 113c1.4 3.4 4.7 5.6 8.3 5.6h0.3c3.8-0.1 7.1-2.6 8.2-6.1l22.3-66.9 16.6 16.6c1.7 1.7 4 2.6 6.3 2.6h35.9c5 0 9-4 9-9s-4.2-9.1-9.1-9.1z" fill="#ffffff" p-id="3516"></path></svg>