<?xml version="1.0" standalone="no"?><!DOCTYPE svg PUBLIC "-//W3C//DTD SVG 1.1//EN" "http://www.w3.org/Graphics/SVG/1.1/DTD/svg11.dtd"><svg t="1542337319598" class="icon" style="" viewBox="0 0 1024 1024" version="1.1" xmlns="http://www.w3.org/2000/svg" p-id="5099" xmlns:xlink="http://www.w3.org/1999/xlink" width="200" height="200"><defs><style type="text/css"></style></defs><path d="M813.793381 512.028576h178.601328V243.869398c0-9.615896-18.574538-14.745326-26.175811-18.18876l-46.407769-21.946531c-6.515376-2.857621-9.715912-5.258023-16.231289-8.115644-12.002009-5.35804-19.774739-9.258693-31.776748-14.516716-56.809511-25.261372-129.39309-63.553497-185.859686-87.786125l-172.143105-81.442206c-30.6337-14.845342-23.661104-14.973935-47.15075-4.443601L312.680918 85.199978c-10.401741 5.258023-20.346263 9.387286-31.319529 15.102528L35.948875 223.508846C29.319194 226.95228 7.601273 232.896132 7.601273 241.569013v782.430987h178.601328V384.450075h627.533627z" p-id="5100" fill="#ffffff"></path><path d="M257.65742 643.079087h282.904504v82.871016h-282.904504zM257.65742 776.672881h282.904504v82.871016h-282.904504zM257.65742 910.266674h282.904504v82.871016h-282.904504zM1016.398727 773.272311H749.66836l78.413127-78.398839-58.609812-58.609812-119.834347 119.848636-58.595524 58.595523 58.595524 58.595524 119.834347 119.834347 58.609812-58.595523-78.413127-78.398839h266.730367v-82.871017z" p-id="5101" fill="#ffffff"></path></svg>