<?xml version="1.0" standalone="no"?><!DOCTYPE svg PUBLIC "-//W3C//DTD SVG 1.1//EN" "http://www.w3.org/Graphics/SVG/1.1/DTD/svg11.dtd"><svg t="1542875838616" class="icon" style="" viewBox="0 0 1024 1024" version="1.1" xmlns="http://www.w3.org/2000/svg" p-id="1911" xmlns:xlink="http://www.w3.org/1999/xlink" width="200" height="200"><defs><style type="text/css"></style></defs><path d="M852.37099 0H175.013805c-35.739452 0-64.808866 26.082831-64.808866 58.238382v907.523236c0 32.155551 29.069415 58.238382 64.808866 58.238382h677.357185c35.739452 0 64.808866-26.082831 64.808866-58.238382V58.238382c0-32.155551-29.069415-58.238382-64.808866-58.238382z m20.308769 965.761618c0 10.054832-9.059304 18.218161-20.308769 18.21816H175.013805c-11.149913 0-20.308769-8.163329-20.308769-18.21816V58.238382c0-10.054832 9.059304-18.218161 20.308769-18.21816h677.357185c11.149913 0 20.308769 8.163329 20.308769 18.21816v907.523236z" fill="#ffffff" p-id="1912"></path><path d="M787.363018 193.72973l-89.597511 89.597511c-2.289714 2.289714-3.882559 2.887031-4.380323 2.887031-0.597317 0-2.090609-0.597317-4.380323-2.887031l-29.865837-29.865837c-2.289714-2.289714-2.887031-3.882559-2.887031-4.380323 0-0.597317 0.597317-2.090609 2.887031-4.380323l90.792145-90.792144-10.950807-8.262882c-20.806533-15.629788-44.500097-23.594011-70.483376-23.693564-39.920669-4.28077-79.244021 8.063776-110.802255 34.843477-15.132024 12.84231-27.675676 28.272992-37.232744 45.794283-9.756173 18.019055-15.828894 37.531402-18.118608 57.740618-4.479876 31.558234 4.181217 58.039277 14.534708 80.139996l-186.163718 186.163718c-6.869143 6.869143-10.154385 15.729341-9.258409 24.98775 0.796422 8.959751 5.475403 17.919502 13.539179 25.983279l17.12308 17.12308c6.07272 6.07272 14.63426 10.35349 23.494458 11.846782 2.190161 0.398211 4.28077 0.497764 6.371379 0.497764 8.262882 0 15.729341-2.787478 21.005639-8.163329l187.557456-187.557457c16.824422 7.665565 33.947501 11.647676 50.971029 11.747229 5.176745 0.597317 10.253937 0.796422 15.430683 0.796423 34.544818 0 67.895003-12.344546 95.371573-35.639899 15.132024-12.84231 27.675676-28.272992 37.232743-45.794284 9.756173-18.019055 15.828894-37.431849 18.118608-57.641065 4.678981-28.770756-4.579428-51.966556-13.53918-74.365935l-6.769589-16.724868z m-3.18569 87.506902l-0.099552 0.597317c-7.964223 71.279798-72.275326 125.137857-140.56854 117.571845l-0.69687-0.099553h-0.696869c-15.132024 0-30.562707-3.882559-45.893836-11.548123l-0.995528 2.090608-8.362435-8.362434-200.698425 200.698425c-2.687925 2.687925-12.244993 0.895975-17.322185-4.28077L351.720008 560.780867c-4.97764-4.97764-9.656621-11.946335-4.28077-17.322185l200.698425-200.698425-7.466459-7.46646c-9.756173-20.010111-18.815477-44.002333-14.833366-71.877114v-0.398211c7.964223-71.279798 72.275326-125.137857 140.56854-117.571846l0.696869 0.099553h0.69687c16.227105 0 31.458682 3.882559 45.296519 11.448571l-70.782034 70.782034c-6.570484 6.570484-9.855726 13.738285-9.855726 21.204744s3.285242 14.63426 9.855726 21.204745l29.865837 29.865837c6.570484 6.570484 13.738285 9.855726 21.204745 9.855726s14.63426-3.285242 21.204744-9.855726l63.912891-63.912892c5.077192 14.534707 8.362434 28.969862 5.674509 45.097414z" fill="#ffffff" p-id="1913"></path><path d="M383.079137 529.12308c-4.878087-1.991056-10.154385-1.493292-14.733813 1.393739-5.475403 3.384795-9.158857 9.557068-9.557068 15.928446-1.991056 4.878087-1.493292 10.154385 1.393739 14.733813 3.5839 5.873615 10.453043 9.656621 17.322185 9.656621 12.742757 0 22.200272-7.267354 22.996695-17.322185 1.991056-4.878087 1.493292-10.154385-1.393739-14.733813-3.384795-5.475403-9.557068-9.158857-16.027999-9.656621z m6.172273 20.308769l-0.597317 1.294186v1.393739c0 5.475403-7.267354 6.869143-11.149913 6.869143-2.787478 0-5.774062-1.692397-7.267353-3.982112-1.393739-2.289714-0.497764-3.882559-0.298659-4.479875l0.597317-1.294186v-1.39374c0-2.787478 1.692397-5.774062 3.982112-7.267353 0.995528-0.597317 1.79195-0.796422 2.488819-0.796423 0.995528 0 1.692397 0.298658 1.991056 0.497764l1.294187 0.597317h1.393739c2.787478 0 5.774062 1.692397 7.267353 3.982112 1.393739 2.389267 0.597317 4.081664 0.298659 4.579428zM385.866615 410.754812l17.421738-16.127552-51.269687-55.450904-0.298658-0.298658c-5.973167-5.973167-16.42621-8.063776-24.489987-0.796422L284.223216 369.241299l-52.364768-56.048221c46.192495-46.092942 92.185884-90.095275 119.961113-116.576317 10.453043-9.955279 18.417266-17.620844 23.096247-22.200273l74.166829-18.516819V154.207272c7.267354-1.294186 21.204744-2.389267 38.626482-1.194633-0.895975 0.69687-1.891503 1.294186-2.787478 1.991055-8.56154 5.973167-18.218161 12.742757-23.1958 15.231577l-1.692397 0.895975-5.67451 5.674509-0.497763 0.497764c-31.856893 35.938557-68.094108 76.556096-72.076221 80.63776l-5.574956 5.574957 12.244993 30.662259 48.382656 52.862532 17.521291-16.028-45.495625-49.676842-4.977639-12.344546c10.552596-11.647676 34.544818-38.626483 67.397239-75.560568l2.787478-2.787478c6.371379-3.484348 15.132024-9.656621 24.390434-16.027999 4.579428-3.185689 9.357962-6.570484 13.539179-9.357962l0.995528-0.69687 0.796422-0.796422c5.973167-5.973167 7.86467-14.833366 4.878087-22.10072-2.787478-6.670037-8.959751-10.652149-16.724869-10.950806-14.63426-1.79195-30.064943-2.289714-43.504569-1.294187-19.412794 1.393739-25.385962 4.878087-27.874781 6.76959L362.670815 153.211744l-2.289714 2.289714c-3.783006 3.783006-12.742757 12.344546-25.087304 24.191328-28.671204 27.377017-76.556096 73.270854-124.341435 120.95664-6.07272 6.07272-8.163329 13.539179-5.574956 19.910558 1.493292 3.484348 4.181217 6.172273 7.665565 7.665565l57.44196 61.523625 0.298658 0.298658c3.086136 3.086136 6.670037 6.670037 12.643205 6.670037 5.574956 0 9.059304-3.086136 12.045887-5.973167l42.8077-31.160024 47.586234 51.170134zM615.136691 600.701536c1.991056 0.796422 3.982112 1.194633 6.07272 1.194634 2.986584 0 5.973167-0.895975 8.760645-2.588373 5.475403-3.384795 9.158857-9.557068 9.557068-15.928446 1.991056-4.878087 1.493292-10.154385-1.393739-14.733813-3.384795-5.475403-9.557068-9.158857-15.928446-9.557068-4.878087-1.991056-10.154385-1.493292-14.733813 1.393739-5.475403 3.384795-9.158857 9.557068-9.557068 15.928446-1.991056 4.878087-1.493292 10.154385 1.393739 14.733813 3.285242 5.475403 9.457515 9.059304 15.828894 9.557068z m-6.072721-20.308769l0.597317-1.294186v-1.393739c0-2.787478 1.692397-5.774062 3.982112-7.267354 0.995528-0.597317 1.79195-0.796422 2.48882-0.796422 0.995528 0 1.692397 0.298658 1.991055 0.497763l1.294187 0.597317h1.393739c2.787478 0 5.774062 1.692397 7.267353 3.982112 1.393739 2.289714 0.497764 3.882559 0.298659 4.479875l-0.597317 1.294187v1.393739c0 2.787478-1.692397 5.774062-3.982112 7.267353-2.289714 1.393739-3.882559 0.497764-4.479875 0.298659l-1.294186-0.597317H616.53043c-2.787478 0-5.774062-1.692397-7.267354-3.982112-1.294186-2.289714-0.497764-3.982112-0.199106-4.479875z" fill="#ffffff" p-id="1914"></path><path d="M496.967529 534.698036l102.439821 106.720591 0.199105 0.199106c1.79195 1.79195 6.07272 5.077192 13.140969 5.077192 3.185689 0 6.968695-0.69687 11.448571-2.389267 7.267354-2.887031 14.932919-8.262882 22.100719-15.430682l17.12308-17.12308c7.167801-7.167801 12.543652-14.833366 15.430682-22.10072 5.574956-13.937391 0.199106-21.602955-2.488819-24.390433L573.921836 458.540152 556.798756 474.966362l100.448765 104.629983c-0.895975 2.887031-3.982112 8.760646-10.652149 15.331129L629.472292 612.050554c-6.570484 6.570484-12.244993 9.656621-15.231576 10.552596L514.090609 518.271826l-17.12308 16.42621zM472.079331 797.915613h-72.77309c-11.548124-0.497764-16.824422 4.97764-15.72934 16.525764v76.954306c0.497764 6.07272 4.380323 9.357962 11.548123 9.955279 7.167801-0.597317 11.05036-4.181217 11.548124-10.751701v-23.1958h58.736146v6.570484c0.497764 3.285242-3.285242 4.97764-11.548123 4.97764-12.14544-2.787478-18.516819-0.497764-19.014583 6.570484-1.692397 9.955279 6.869143 14.63426 25.585067 14.036943 19.811005 0.497764 29.168968-6.869143 28.073887-22.299825v-59.532568c1.194633-14.335602-4.380323-20.906086-16.426211-19.811006z m-6.670037 52.06611h-58.736146v-7.46646h58.736146v7.46646z m0-25.585067h-58.736146v-3.285242c0-2.787478 1.095081-4.181217 3.285242-4.181218h52.066109c2.190161 0 3.285242 1.393739 3.285242 4.181218v3.285242zM310.803811 731.713008c1.095081 3.882559 2.190161 8.860198 3.285242 14.932919 1.095081 6.07272 2.190161 11.05036 3.285242 14.932918 1.692397 8.860198 5.276298 11.846782 10.751702 9.059304 6.570484-1.095081 8.860198-5.475403 6.570484-13.240521-1.095081-4.380323-3.285242-14.036943-6.570484-28.969862-1.095081-7.167801-4.97764-9.955279-11.548124-8.262882-4.97764 1.692397-6.869143 5.475403-5.774062 11.548124z" fill="#ffffff" p-id="1915"></path><path d="M491.890336 771.434571h-43.803227v-6.570484h37.232743c4.97764-0.497764 7.665565-3.5839 8.262882-9.059304-1.095081-5.475403-4.181217-8.262882-9.059304-8.262881h-36.336769v-6.570485h42.210384c6.07272-0.497764 9.059304-3.882559 9.059303-9.955279-0.597317-6.07272-3.882559-9.357962-9.955279-9.955279h-41.314408v-7.466459c-0.597317-5.475403-4.380323-8.56154-11.548123-9.059304-7.167801 0.597317-11.05036 3.5839-11.548124 9.059304v7.466459H383.576901c-8.262882-2.787478-13.539179 0-15.729341 8.262882-0.597317 2.190161-1.692397 6.371379-3.285242 12.444099-1.692397 7.167801-2.986584 12.643204-4.181217 16.525763-0.597317 7.167801 1.891503 11.05036 7.466459 11.548124 4.380323 0.597317 7.665565-1.891503 9.955279-7.46646 0.497764-2.787478 1.393739-6.371379 2.48882-10.751701s1.891503-7.964223 2.488819-10.751701h42.210383v6.570484h-34.743923c-4.97764 0.597317-7.466459 3.5839-7.46646 9.059304 0.497764 5.475403 3.285242 8.262882 8.262882 8.262881h33.947501v6.570484h-43.803227c-6.07272 0-9.059304 2.190161-9.059304 6.570485h-13.240521v-62.817811c-0.597317-5.475403-3.882559-8.56154-9.955279-9.059304-6.570484 0.597317-10.253937 3.5839-10.751702 9.059304v62.817811H315.881003c-5.475403 0.597317-8.56154 4.181217-9.059304 10.751701 0.497764 6.570484 3.5839 10.253937 9.059304 10.751701h16.525763c-4.380323 16.027999-12.444099 35.241688-23.992222 57.840171-3.882559 8.860198-2.986584 14.335602 2.48882 16.525764 6.570484 3.882559 12.14544 1.393739 16.525763-7.46646 4.380323-7.167801 7.964223-14.932919 10.751701-23.1958v49.57729c0.497764 5.475403 4.181217 8.56154 10.751702 9.059304 6.07272-0.597317 9.357962-3.5839 9.955279-9.059304v-57.043749c1.095081 1.692397 2.48882 3.285242 4.181217 4.977639 1.095081 1.692397 2.190161 3.285242 3.285242 4.97764 3.285242 3.882559 7.466459 4.181217 12.444099 0.796422 4.97764-3.285242 5.774062-7.665565 2.488819-13.240521-1.095081-2.190161-3.5839-6.371379-7.466459-12.444099-1.692397-1.692397-2.787478-2.986584-3.285242-4.181217-5.475403-7.167801-9.357962-10.751701-11.548124-10.751701v-6.570484h15.729341c6.07272 0 9.059304-2.986584 9.059304-9.059304h109.109858c4.97764-0.497764 7.665565-3.882559 8.262882-9.955279-1.294186-5.674509-4.28077-8.760646-9.25841-8.760646zM742.663815 712.698425H621.109858c-9.955279 0-15.132024 6.07272-15.729341 18.218161v38.825588c0 12.643204 6.07272 19.014583 18.218161 19.014583h116.576317c14.335602 0.597317 21.204744-6.07272 20.706981-19.811005v-38.029166c0.497764-12.643204-5.574956-18.715925-18.218161-18.218161z m-12.444099 51.269687h-94.276492c-3.882559 0.597317-5.475403-0.796422-4.97764-4.181217V741.568734c0-3.285242 1.692397-4.97764 4.97764-4.977639h94.276492c3.285242-0.497764 4.678981 1.095081 4.181217 4.977639v18.218161c0.497764 2.887031-0.895975 4.181217-4.181217 4.181217zM657.446626 797.119191h-46.292047c-11.05036 0.597317-16.824422 6.570484-17.322185 18.218161v64.510208c0 10.453043 5.475403 15.729341 16.525763 15.729341h47.088469c12.643204 0 19.014583-6.07272 19.014583-18.218161v-59.532569c0.597317-14.435155-5.774062-21.304297-19.014583-20.70698z m-10.751701 73.569512h-23.992222c-3.285242 0.597317-4.678981-0.796422-4.181217-4.181217v-39.721563c0-3.285242 1.393739-4.97764 4.181217-4.97764h23.992222c3.285242-0.497764 4.678981 0.796422 4.181217 4.181217v40.517986c0.497764 2.787478-0.895975 4.181217-4.181217 4.181217zM752.519541 797.119191H707.123469c-13.738285-0.497764-20.408322 6.07272-19.811005 19.811005v58.736147c-0.597317 13.738285 5.774062 20.408322 19.014582 19.811005h46.292048c12.14544 0.497764 17.919502-4.97764 17.322185-16.525763v-65.306631c0.497764-11.647676-5.276298-17.12308-17.421738-16.525763z m-12.344546 74.365934h-23.992222c-2.787478 0-4.181217-1.095081-4.181217-3.285242v-42.210383c0-2.787478 1.393739-4.181217 4.181217-4.181217h23.992222c3.285242-0.497764 4.678981 0.796422 4.181217 4.181217v41.314408c0.497764 2.787478-0.895975 4.181217-4.181217 4.181217z" fill="#ffffff" p-id="1916"></path></svg>