<?xml version="1.0" standalone="no"?><!DOCTYPE svg PUBLIC "-//W3C//DTD SVG 1.1//EN" "http://www.w3.org/Graphics/SVG/1.1/DTD/svg11.dtd"><svg t="1542935487025" class="icon" style="" viewBox="0 0 1024 1024" version="1.1" xmlns="http://www.w3.org/2000/svg" p-id="3147" xmlns:xlink="http://www.w3.org/1999/xlink" width="200" height="200"><defs><style type="text/css"></style></defs><path d="M936.787968 962.92864H87.212032V61.07136h849.575936v901.85728z m-818.204672-31.371264H905.4208V92.442624H118.583296v839.114752z" fill="#ffffff" p-id="3148"></path><path d="M359.948288 76.754944h31.367168V947.24096h-31.367168zM638.783488 76.754944h31.367168V947.24096h-31.367168z" fill="#ffffff" p-id="3149"></path><path d="M318.705664 813.641728H168.247296v-150.462464h150.458368v150.462464z m-129.544192-20.914176h108.634112v-108.638208H189.161472v108.638208zM595.726336 813.641728h-150.458368v-150.462464h150.458368v150.462464z m-129.544192-20.914176h108.634112v-108.638208h-108.634112v108.638208zM872.742912 813.641728H722.28864v-150.462464h150.454272v150.462464z m-129.540096-20.914176h108.62592v-108.638208h-108.62592v108.638208z" fill="#ffffff" p-id="3150"></path><path d="M169.12384 257.1264h142.901248v20.914176H169.12384zM197.005312 341.64736h87.138304v20.914176H197.005312zM218.78784 426.176512h43.565056v20.914176H218.78784zM446.869504 260.272128h142.901248v20.914176h-142.901248zM474.750976 344.80128h87.138304v20.914176h-87.138304zM496.533504 429.318144h43.565056v20.914176h-43.565056zM719.384576 257.1264h142.901248v20.914176h-142.901248zM747.266048 341.64736h87.138304v20.914176h-87.138304zM769.052672 426.176512h43.565056v20.914176h-43.565056z" fill="#ffffff" p-id="3151"></path></svg>