<?xml version="1.0" standalone="no"?><!DOCTYPE svg PUBLIC "-//W3C//DTD SVG 1.1//EN" "http://www.w3.org/Graphics/SVG/1.1/DTD/svg11.dtd"><svg t="1527062964806" class="icon" style="" viewBox="0 0 1024 1024" version="1.1" xmlns="http://www.w3.org/2000/svg" p-id="3427" xmlns:xlink="http://www.w3.org/1999/xlink" width="200" height="200"><defs><style type="text/css"></style></defs><path d="M1010.853067 416.319544l-64.273894-58.430814-365.192582-328.673323a104.445078 104.445078 0 0 0-135.851641 0L13.146933 416.319544a37.468759 37.468759 0 1 0 50.396576 55.509272l5.112696-4.382311v449.917261A108.827389 108.827389 0 0 0 177.483595 1022.53923h678.527817a107.366619 107.366619 0 0 0 100.793153-106.636234V468.907275a37.468759 37.468759 0 1 0 50.396576-55.509272zM585.038516 730.385164v219.115549H438.961484v-219.115549z m37.249644-73.038516h-219.115549a37.249643 37.249643 0 0 0-37.249644 37.249643V949.500713H173.101284a29.945792 29.945792 0 0 1-26.293866-32.136947V399.520685l346.202568-317.717547a29.945792 29.945792 0 0 1 37.980028 0l351.315264 319.178317v516.382311a30.676177 30.676177 0 0 1-29.945792 29.945792L658.077033 949.500713V694.596291A37.249643 37.249643 0 0 0 621.557775 657.346648z" p-id="3428"></path></svg>