<?xml version="1.0" standalone="no"?><!DOCTYPE svg PUBLIC "-//W3C//DTD SVG 1.1//EN" "http://www.w3.org/Graphics/SVG/1.1/DTD/svg11.dtd"><svg t="1540437479833" class="icon" style="" viewBox="0 0 1024 1024" version="1.1" xmlns="http://www.w3.org/2000/svg" p-id="2802" xmlns:xlink="http://www.w3.org/1999/xlink" width="200" height="200"><defs><style type="text/css"></style></defs><path d="M766.795177 977.245659h-35.265561c-16.583805 0-30.070634-13.386927-30.070635-30.070635 0-16.583805 13.386927-30.070634 30.070635-30.070634h35.265561c22.378146 0 43.357659-8.691512 59.142243-24.376195 15.684683-15.684683 24.17639-36.46439 24.176391-58.842536V351.85639h-676.23961v482.029269c0 45.85522 37.463415 83.118829 83.518439 83.118829h196.108488c16.583805 0 30.070634 13.386927 30.070634 30.070634s-13.486829 29.970732-30.070634 29.970732h-196.108488c-79.222634 0-143.659707-64.337171-143.659707-143.36V321.685854c0-16.583805 13.386927-30.070634 30.070634-30.070634h736.380878c16.583805 0 30.070634 13.386927 30.070634 30.070634v512c0 38.262634-14.885463 74.227512-41.859122 101.301073-27.073561 27.273366-63.138341 42.258732-101.60078 42.258732zM993.473811 351.85639h-962.95961c-16.583805 0-30.070634-13.386927-30.070634-30.070634s13.386927-30.070634 30.070634-30.070634h962.95961c16.583805 0 30.070634 13.386927 30.070634 30.070634 0 16.683707-13.486829 30.070634-30.070634 30.070634zM137.210006 364.643902c-6.493659 0-12.987317-2.097951-18.481951-6.393756-13.08722-10.289951-15.484878-29.07161-5.194927-42.258731l182.621658-233.671805c24.17639-31.069659 61.04039-48.852293 103.498927-50.250927 39.861073-1.398634 80.621268 12.387902 114.787903 38.662244l346.761365 218.386732c14.086244 8.891317 18.282146 27.373268 9.39083 41.459512-8.891317 14.086244-27.373268 18.282146-41.459512 9.390829L481.074201 120.782049c-0.79922-0.499512-1.698341-1.198829-2.497561-1.798244-23.277268-18.182244-50.650537-27.87278-77.02478-26.973659-24.17639 0.699317-44.856195 10.489756-57.843513 27.173464l-182.721561 233.771707c-5.894244 7.692488-14.785561 11.688585-23.77678 11.688585zM850.313616 328.07961c-12.987317 0-24.97561-8.491707-28.871805-21.578927l-48.752391-166.137756c-0.299707-1.298732-0.599415-2.497561-0.799219-3.796293-1.798244-11.388878-6.893268-21.27922-14.286049-27.672975-4.096-3.596488-10.689561-7.592585-18.481951-6.393757l-199.405268 31.669074c-16.384 2.597463-31.868878-8.59161-34.366439-24.97561s8.59161-31.868878 24.975609-34.366439l199.405269-31.768976c23.676878-3.796293 48.35278 3.69639 67.633951 20.380098 17.482927 15.185171 29.371317 37.163707 33.767024 61.539902l48.252878 164.339512c4.695415 15.98439-4.395707 32.668098-20.380097 37.363513-3.096976 0.999024-5.794341 1.398634-8.691512 1.398634zM568.68864 493.917659h-339.868098c-16.583805 0-30.070634-13.386927-30.070634-30.070635s13.386927-30.070634 30.070634-30.070634h339.868098c16.583805 0 30.070634 13.386927 30.070634 30.070634s-13.486829 30.070634-30.070634 30.070635zM398.654689 664.451122h-169.834147c-16.583805 0-30.070634-13.386927-30.070634-30.070634 0-16.583805 13.386927-30.070634 30.070634-30.070634h169.934049c16.583805 0 30.070634 13.386927 30.070634 30.070634-0.099902 16.683707-13.486829 30.070634-30.170536 30.070634z" p-id="2803"></path></svg>