<?xml version="1.0" standalone="no"?><!DOCTYPE svg PUBLIC "-//W3C//DTD SVG 1.1//EN" "http://www.w3.org/Graphics/SVG/1.1/DTD/svg11.dtd"><svg t="1537437720312" class="icon" style="" viewBox="0 0 1024 1024" version="1.1" xmlns="http://www.w3.org/2000/svg" p-id="1186" xmlns:xlink="http://www.w3.org/1999/xlink" width="200" height="200"><defs><style type="text/css"></style></defs><path d="M370.696252 499.325329l294.516734 0 0 59.315944L370.696252 558.641273 370.696252 499.325329 370.696252 499.325329zM370.696252 499.325329" p-id="1187"></path><path d="M368.653733 595.458807 663.167397 595.458807l0 59.309804L368.653733 654.768611 368.653733 595.458807 368.653733 595.458807zM368.653733 595.458807" p-id="1188"></path><path d="M958.70846 285.086967c0-16.947997-13.735839-30.677697-30.677697-30.677697L782.814404 254.409271l0-94.541213L782.814404 100.55723l-58.286498 0L301.158503 100.55723l-58.286498 0 0 0 0 153.853064L95.968214 254.410294c-16.942881 0-30.677697 13.729699-30.677697 30.677697l0 102.772688 0 6.647397 0 270.484388 86.923722 0 41.568744 0 49.089022 0 0 69.538773 2.282996 0L442.583512 923.04675l0.720408-0.7552 0 1.151219 281.219893 0 13.295817 0 44.994774 0L782.814404 664.99144l83.499739 0 0-0.107447 92.214215 0 0-267.082918c0.116657-1.082658 0.174985-2.180666 0.174985-3.292999L958.703343 285.086967 958.70846 285.086967zM861.556792 288.664446c19.767206 0 35.792181 16.023952 35.792181 35.792181 0 19.767206-16.023952 35.792181-35.792181 35.792181-19.766183 0-35.792181-16.024975-35.792181-35.792181C825.764612 304.688397 841.789587 288.664446 861.556792 288.664446L861.556792 288.664446zM301.158503 159.869081l423.370427 0 0 94.541213L301.158503 254.410294 301.158503 159.869081 301.158503 159.869081zM724.527906 488.078171l0 387.575176L478.070748 875.653347l0-175.005826L301.158503 700.647521 301.158503 488.078171l-58.286498 0 0 106.301048-49.089022 0L193.782983 425.184749l636.251885 0 0 169.19447-47.220465 0 0-106.301048L724.527906 488.078171 724.527906 488.078171zM724.527906 488.078171" p-id="1189"></path></svg>