<?xml version="1.0" standalone="no"?><!DOCTYPE svg PUBLIC "-//W3C//DTD SVG 1.1//EN" "http://www.w3.org/Graphics/SVG/1.1/DTD/svg11.dtd"><svg t="1542337020139" class="icon" style="" viewBox="0 0 1024 1024" version="1.1" xmlns="http://www.w3.org/2000/svg" p-id="4316" xmlns:xlink="http://www.w3.org/1999/xlink" width="200" height="200"><defs><style type="text/css"></style></defs><path d="M576.01697 0.319874a31.987365 31.987365 0 0 1 0 63.97473H128.19386c-49.260542 0-63.97473 15.353935-63.97473 63.97473v767.696759c0 49.260542 14.074441 63.97473 63.97473 63.97473h639.7473c49.260542 0 63.97473-14.714188 63.97473-63.97473v-127.94946c0-38.384838 63.97473-40.30408 63.97473 0v127.94946a123.471229 123.471229 0 0 1-127.94946 127.94946H128.19386a123.471229 123.471229 0 0 1-127.94946-127.94946V128.269334a127.94946 127.94946 0 0 1 127.94946-127.94946zM149.305521 320.193524C136.510575 320.193524 128.19386 307.398578 128.19386 288.206159s8.316715-31.987365 21.111661-31.987365h277.650328c12.794946 0 21.111661 12.794946 21.111661 31.987365s-8.316715 31.987365-21.111661 31.987365z m594.964989 191.92419c14.074441 0 23.67065 12.794946 23.67065 31.987364s-9.596209 31.987365-23.67065 31.987365H151.86451C137.79007 576.092443 128.19386 563.297497 128.19386 544.105078s9.596209-31.987365 23.67065-31.987364z m0 255.898919c14.074441 0 23.67065 12.794946 23.67065 31.987365s-9.596209 31.987365-23.67065 31.987365H151.86451c-14.074441 0-23.67065-12.794946-23.67065-31.987365s9.596209-31.987365 23.67065-31.987365z m186.166464-639.747299a29.428376 29.428376 0 1 1 0 59.496498h-17.912924a116.434009 116.434009 0 0 1-12.155199 28.788629l13.434693 13.434693a29.428376 29.428376 0 0 1-42.863069 40.943827l-12.155198-12.155198a116.434009 116.434009 0 0 1-28.788629 12.155198v17.912925a29.428376 29.428376 0 0 1-59.496499 0v-15.993683a116.434009 116.434009 0 0 1-28.788628-12.155198l-11.515452 11.515451a29.428376 29.428376 0 0 1-51.179784-12.155199 29.428376 29.428376 0 0 1 8.956462-28.788628l12.155199-12.155199a116.434009 116.434009 0 0 1-12.794946-26.869386h-17.912924a29.428376 29.428376 0 1 1 0-59.496499h17.912924a116.434009 116.434009 0 0 1 12.155199-28.788629l-13.434693-13.434693a29.428376 29.428376 0 0 1 42.863069-40.943827l12.794946 12.794946A116.434009 116.434009 0 0 1 767.94116 47.661174V29.748249a29.428376 29.428376 0 1 1 59.496499 0v17.912925a116.434009 116.434009 0 0 1 28.788628 12.155199l14.074441-11.515452a29.428376 29.428376 0 0 1 51.179784 12.155199 29.428376 29.428376 0 0 1-8.956462 28.788628l-12.155199 12.155199a116.434009 116.434009 0 0 1 12.155199 28.788629zM831.91589 155.778468a31.987365 31.987365 0 0 0-5.757726-14.714188v-3.838484h-3.838484a31.987365 31.987365 0 0 0-17.912924-8.956462h-8.956462a31.987365 31.987365 0 0 0-14.714188 5.757725h-3.838484v3.838484a31.987365 31.987365 0 0 0-5.757726 14.714188v8.956462a31.987365 31.987365 0 0 0 5.757726 14.714188v3.838484h3.838484a31.987365 31.987365 0 0 0 14.714188 5.757726h8.956462a31.987365 31.987365 0 0 0 14.714188-5.757726h3.838484v-3.838484a31.987365 31.987365 0 0 0 8.956462-11.515451v-8.956462z" fill="#ffffff" p-id="4317"></path><path d="M863.903255 512.117714c-19.192419 0-31.987365 8.316715-31.987365 21.11166v85.726139c0 12.794946 12.794946 21.111661 31.987365 21.11166s31.987365-8.316715 31.987365-21.11166V533.229374c0-12.794946-12.794946-21.111661-31.987365-21.11166zM841.512099 393.764463a28.788628 28.788628 0 0 0-9.596209 22.391156 19.192419 19.192419 0 0 0 3.198736 12.794946c3.198736 3.198736 3.198736 6.397473 6.397473 9.596209a34.546354 34.546354 0 0 0 22.391156 9.59621h6.397473l6.397473-3.198737c6.397473-3.198736 3.198736 0 6.397473 0s3.198736-3.198736 6.397473-3.198736 6.397473-6.397473 6.397473-9.59621V416.155619a28.788628 28.788628 0 0 0-9.59621-22.391156 30.70787 30.70787 0 0 0-44.782311 0z" fill="#ffffff" p-id="4318"></path></svg>