<?xml version="1.0" standalone="no"?><!DOCTYPE svg PUBLIC "-//W3C//DTD SVG 1.1//EN" "http://www.w3.org/Graphics/SVG/1.1/DTD/svg11.dtd"><svg t="1527063007368" class="icon" style="" viewBox="0 0 1024 1024" version="1.1" xmlns="http://www.w3.org/2000/svg" p-id="3862" xmlns:xlink="http://www.w3.org/1999/xlink" width="200" height="200"><defs><style type="text/css"></style></defs><path d="M917.210715 365.708905h-4.38848c-4.388481-11.702615-8.776961-22.673816-13.896855-32.913604a117.757561 117.757561 0 0 0-7.314134-158.716713l-39.496325-39.496324a117.026147 117.026147 0 0 0-83.38113-34.376431 114.831907 114.831907 0 0 0-73.141342 26.330883h-4.388481L658.290364 110.445621v-3.657067A118.488974 118.488974 0 0 0 539.80139 0.002194h-55.58742A118.488974 118.488974 0 0 0 365.724996 106.05714v5.119894l-32.913604 13.896855H329.154325a117.757561 117.757561 0 0 0-158.716712 7.314134l-39.496325 39.496325a117.026147 117.026147 0 0 0-34.376431 83.38113 114.831907 114.831907 0 0 0 26.330883 73.141342v5.119894c-5.119894 10.239788-9.508374 21.942403-13.165441 32.913604L106.804645 365.708905A117.757561 117.757561 0 0 0 0.018286 483.466465v56.318834A117.026147 117.026147 0 0 0 105.341818 658.274273h5.119894c3.657067 10.971201 8.045548 21.942403 13.165442 32.913604v3.657067a117.757561 117.757561 0 0 0 7.314134 158.716712l39.496325 39.496325a117.026147 117.026147 0 0 0 83.38113 34.376431 114.831907 114.831907 0 0 0 73.141342-26.330883h5.119894l32.913604 13.165441v4.388481A117.757561 117.757561 0 0 0 484.21397 1023.980983h56.318834A117.026147 117.026147 0 0 0 658.290364 918.657451v-5.119894l32.913604-13.165442a118.488974 118.488974 0 0 0 73.141342 27.062297 117.026147 117.026147 0 0 0 83.38113-34.376431l39.496325-39.496325a117.026147 117.026147 0 0 0 34.376431-83.38113 114.831907 114.831907 0 0 0-26.330883-73.141342v-4.38848c5.119894-10.239788 9.508374-21.210989 13.896855-32.913604h3.657067A119.220388 119.220388 0 0 0 1023.997075 539.785299v-56.318834A119.220388 119.220388 0 0 0 917.210715 365.708905z m-63.632967 241.366428a351.078442 351.078442 0 0 1-32.913604 78.99265l21.210989 40.959151a49.736113 49.736113 0 0 1 0 73.141343l-37.302084 40.959151a51.198939 51.198939 0 0 1-73.141343 0l-42.421978-21.942403a354.004096 354.004096 0 0 1-78.992649 32.913604l-14.628269 43.884806a49.736113 49.736113 0 0 1-49.736112 49.736112h-61.438728a49.736113 49.736113 0 0 1-49.736112-49.736112l-15.359682-46.079046a351.078442 351.078442 0 0 1-78.261236-32.18219l-48.273286 22.673816a51.198939 51.198939 0 0 1-73.141342 0L182.871641 804.556957a49.736113 49.736113 0 0 1 0-73.141342l21.942403-43.153392a354.004096 354.004096 0 0 1-32.182191-78.261236l-43.884805-14.628268A49.736113 49.736113 0 0 1 73.159628 539.785299v-55.58742a49.736113 49.736113 0 0 1 49.736112-49.736113l46.079046-15.359682a353.272682 353.272682 0 0 1 32.18219-78.261236L183.603054 292.567563a49.736113 49.736113 0 0 1 0-73.141343L219.442312 182.855549a49.736113 49.736113 0 0 1 35.107844-14.628268 38.033498 38.033498 0 0 1 38.033498 9.508374l43.884805 21.942403a354.004096 354.004096 0 0 1 79.724063-32.913604l16.091095-38.033498A49.736113 49.736113 0 0 1 484.21397 73.143536h55.58742a49.736113 49.736113 0 0 1 49.736113 49.736113l14.628268 45.347632a352.541269 352.541269 0 0 1 78.99265 32.913604l48.273285-17.553922a66.558621 66.558621 0 0 1 39.496325-19.748163c10.971201 0 19.748162 8.045548 29.256537 18.285336l40.959152 37.302084a50.467526 50.467526 0 0 1 0 73.141343l-21.942403 42.421978a352.541269 352.541269 0 0 1 32.913604 78.992649l43.884805 14.628269a49.736113 49.736113 0 0 1 49.736113 49.736112v55.58742a49.736113 49.736113 0 0 1-49.736113 49.736113l-45.347632 14.628268z" p-id="3863"></path><path d="M512.00768 348.154983A163.836606 163.836606 0 1 0 675.844286 511.991589 163.836606 163.836606 0 0 0 512.00768 348.154983zM601.240118 511.991589A89.232437 89.232437 0 1 1 512.00768 422.759151 89.963851 89.963851 0 0 1 601.240118 511.991589z" p-id="3864"></path></svg>