<?xml version="1.0" standalone="no"?><!DOCTYPE svg PUBLIC "-//W3C//DTD SVG 1.1//EN" "http://www.w3.org/Graphics/SVG/1.1/DTD/svg11.dtd"><svg t="1571110486422" class="icon" viewBox="0 0 1024 1024" version="1.1" xmlns="http://www.w3.org/2000/svg" p-id="2198" xmlns:xlink="http://www.w3.org/1999/xlink" width="200" height="200"><defs><style type="text/css"></style></defs><path d="M899.4 791.7h-24l24-263.6c2-22.3-5.5-44.6-20.6-61.2s-36.7-26.1-59.1-26.1H631l-20-129.6c-2.6-16.8 4.2-33.3 17.7-43.1 25.7-18.6 39.9-43.1 39.9-68.8 0-60.4-74.8-115.5-157-115.5s-157 55-157 115.5c0 25.7 14.2 50.2 39.9 68.8 13.6 9.8 20.4 26.4 17.7 43.2l-20 129.5H203.6c-22.4 0-44 9.5-59.1 26.1s-22.6 38.9-20.6 61.2l24 263.6h-24c-10.2 0-18.5 8.3-18.5 18.5v98.5c0 10.2 8.3 18.5 18.5 18.5h209.3c10.2 0 18.5-8.3 18.5-18.5V884h36.9v24.6c0 10.2 8.3 18.5 18.5 18.5h209.3c10.2 0 18.5-8.3 18.5-18.5V884h36.9v24.6c0 10.2 8.3 18.5 18.5 18.5h209.3c10.2 0 18.5-8.3 18.5-18.5v-98.5c-0.2-10.1-8.5-18.4-18.7-18.4z m-79.7-313.9c12.3 0 23.6 5 31.8 14 8.3 9.1 12.2 20.8 11.1 33l-24.3 266.9H690.2c-1.7 0-3.3 0.3-4.9 0.7l-48.6-314.7h183v0.1zM391.6 199.4c0-35.6 53.5-78.6 120-78.6s120 43 120 78.6c0 18.3-15.4 32.2-24.6 38.9-24.9 18-37.3 48.2-32.6 78.7l19.1 123.9h-164L448.8 317c4.8-30.6-7.7-60.7-32.6-78.7-9.2-6.7-24.6-20.6-24.6-38.9zM171.8 491.8c8.3-9 19.6-14 31.8-14h183L338 792.5c-1.6-0.4-3.2-0.7-4.9-0.7H184.9l-24.3-266.9c-1-12.3 2.9-24 11.2-33.1z m142.9 398.4H142.3v-61.6h172.3v61.6h0.1z m283.1 0H425.5v-61.6h172.3v61.6z m18.5-98.5H407c-10.2 0-18.5 8.3-18.5 18.5v36.9H367l57-369.3h175.3l57 369.3h-21.6v-36.9c0.1-10.2-8.2-18.5-18.4-18.5zM881 890.2H708.6v-61.6H881v61.6z" fill="#ffffff" p-id="2199"></path></svg>